<svg viewBox="0 0 14 10">
    <g transform="translate(-1.000000, -3.000000)">
        <path d="M12.074,13 C12.606,13 13.096,12.8602794 13.544,12.5808383 C13.992,12.3013972 14.3466667,11.9221557 14.608,11.4431138 C14.8693333,10.9640719 15,10.4401198 15,9.87125749 C15,9.33233533 14.8786667,8.83333333 14.636,8.3742515 C14.3933333,7.91516966 14.0666667,7.54341317 13.656,7.25898204 C13.2453333,6.9745509 12.7926667,6.81237525 12.298,6.77245509 C12.158,6.05389222 11.8826667,5.40768463 11.472,4.83383234 C11.0613333,4.25998004 10.5573333,3.81337325 9.96,3.49401198 C9.35333333,3.16467066 8.7,3 8,3 C7.16933333,3 6.404,3.23453094 5.704,3.70359281 C5.02266667,4.16267465 4.49533333,4.77644711 4.122,5.54491018 C3.54333333,5.61477046 3.016,5.82185629 2.54,6.16616766 C2.064,6.51047904 1.68833333,6.95459082 1.413,7.49850299 C1.13766667,8.04241517 1,8.62874251 1,9.25748503 C1,9.93612774 1.15633333,10.5623752 1.469,11.1362275 C1.78166667,11.7100798 2.20633333,12.1641717 2.743,12.498503 C3.27966667,12.8328343 3.86533333,13 4.5,13 L4.5,13 L12.074,13 Z M8,11.742515 L5.074,8.61377246 L6.824,8.61377246 L6.824,6.12874251 L9.176,6.12874251 L9.176,8.61377246 L10.926,8.61377246 L8,11.742515 Z" />
    </g>
</svg>