<?xml version="1.0" encoding="UTF-8"?>
<svg width="16px" height="13px" viewBox="0 0 16 13" version="1.1" xmlns="http://www.w3.org/2000/svg" xmlns:xlink="http://www.w3.org/1999/xlink">
    <g transform="translate(-432.000000, -4.000000)">
        <path d="M440.4375,17 C440.59375,17 440.726562,16.9453125 440.835938,16.8359375 C440.945312,16.7265625 441,16.59375 441,16.4375 C441,16.28125 440.945312,16.1484375 440.835938,16.0390625 C440.726562,15.9296875 440.59375,15.875 440.4375,15.875 L433.125,15.875 L433.125,7.125 L446.875,7.125 L446.875,9.4375 C446.875,9.59375 446.929688,9.7265625 447.039062,9.8359375 C447.148438,9.9453125 447.28125,10 447.4375,10 C447.59375,10 447.726562,9.9453125 447.835938,9.8359375 C447.945312,9.7265625 448,9.59375 448,9.4375 L448,7.125 C448,6.8125 447.890625,6.546875 447.671875,6.328125 C447.453125,6.109375 447.1875,6 446.875,6 L439.640625,6 L439.25,4.78125 C439.177083,4.55208333 439.041667,4.36458333 438.84375,4.21875 C438.645833,4.07291667 438.421875,4 438.171875,4 L433.125,4 C432.8125,4 432.546875,4.109375 432.328125,4.328125 C432.109375,4.546875 432,4.8125 432,5.125 L432,15.875 C432,16.1875 432.109375,16.453125 432.328125,16.671875 C432.546875,16.890625 432.8125,17 433.125,17 L440.4375,17 Z M438.453125,6 L433.125,6 L433.125,5.125 L438.171875,5.125 L438.453125,6 Z M444.4375,17 C444.59375,17 444.726562,16.9453125 444.835938,16.8359375 C444.945312,16.7265625 445,16.59375 445,16.4375 L445,14.125 L447.4375,14.125 C447.59375,14.125 447.726562,14.0703125 447.835938,13.9609375 C447.945312,13.8515625 448,13.71875 448,13.5625 C448,13.40625 447.945312,13.2734375 447.835938,13.1640625 C447.726562,13.0546875 447.59375,13 447.4375,13 L445,13 L445,10.5625 C445,10.40625 444.945312,10.2734375 444.835938,10.1640625 C444.726562,10.0546875 444.59375,10 444.4375,10 C444.28125,10 444.148438,10.0546875 444.039062,10.1640625 C443.929688,10.2734375 443.875,10.40625 443.875,10.5625 L443.875,13 L441.5625,13 C441.40625,13 441.273438,13.0546875 441.164062,13.1640625 C441.054688,13.2734375 441,13.40625 441,13.5625 C441,13.71875 441.054688,13.8515625 441.164062,13.9609375 C441.273438,14.0703125 441.40625,14.125 441.5625,14.125 L443.875,14.125 L443.875,16.4375 C443.875,16.59375 443.929688,16.7265625 444.039062,16.8359375 C444.148438,16.9453125 444.28125,17 444.4375,17 Z" />
    </g>
</svg>