<?xml version="1.0" encoding="UTF-8"?>
<svg width="14px" height="13px" viewBox="0 0 14 13" version="1.1" xmlns="http://www.w3.org/2000/svg" xmlns:xlink="http://www.w3.org/1999/xlink">
    <g transform="translate(-1.000000, -1.000000)">
        <path d="M10.8369919,1.5 L10.8369187,1.502 L10.9733724,1.5090374 C11.110026,1.52146667 11.2386894,1.55274472 11.3569041,1.60410081 L11.4715447,1.66219512 C12.2739837,2.12317073 12.4560976,3.56300813 12.0463415,5.37276423 C13.8219512,5.91626016 14.9800813,6.79268293 14.9800813,7.71747967 C14.9800813,8.63943089 13.8276423,9.51585366 12.0634146,10.0593496 C12.4760163,11.8634146 12.296748,13.3004065 11.4971545,13.7613821 C11.3093496,13.8695122 11.0930894,13.9207317 10.854065,13.9207317 C10.0715447,13.9207317 9.04715447,13.3686992 8.01138211,12.4069106 C6.97560976,13.3743902 5.95121951,13.9321138 5.16869919,13.9321138 C4.9296748,13.9321138 4.71341463,13.8808943 4.52845528,13.7727642 C3.72601626,13.3117886 3.54390244,11.8719512 3.95365854,10.0621951 C2.17804878,9.51869919 1.0199187,8.64227642 1.0199187,7.71747967 C1.0199187,6.79552846 2.17235772,5.92195122 3.94227642,5.37560976 C3.5296748,3.57154472 3.70894309,2.13455285 4.50853659,1.67357724 C4.69634146,1.56544715 4.91260163,1.51422764 5.15162602,1.51422764 L5.15162602,1.51422764 C5.93414634,1.51138211 6.95853659,2.06341463 7.99430894,3.02520325 C9.0300813,2.05772358 10.0544715,1.5 10.8369919,1.5 L10.8369919,1.5 Z M4.56260163,10.2329268 C4.5,10.5203252 4.44878049,10.8020325 4.41747967,11.0695122 C4.28658537,12.1565041 4.45447154,13.001626 4.84146341,13.2235772 C4.92682927,13.2719512 5.03495935,13.297561 5.16300813,13.3004065 C5.75487805,13.3004065 6.62560976,12.8280488 7.55325203,11.9658537 C7.15203252,11.547561 6.75365854,11.0695122 6.3695122,10.5430894 C5.72926829,10.4747967 5.1203252,10.3695122 4.56260163,10.2329268 Z M11.4430894,10.2272358 C10.8853659,10.3666667 10.2764228,10.4719512 9.63333333,10.5402439 C9.25487805,11.0666667 8.85650407,11.5418699 8.45813008,11.9601626 C9.38577236,12.8166667 10.2593496,13.2861789 10.848374,13.2861789 C10.9792683,13.2861789 11.0902439,13.2634146 11.1756098,13.2121951 C11.5597561,12.9873984 11.7247967,12.1422764 11.5910569,11.0552846 C11.5597561,10.7906504 11.5085366,10.5146341 11.4430894,10.2272358 Z M8.78821138,10.6056911 C8.52926829,10.6199187 8.26463415,10.6256098 7.99715447,10.6256098 C7.73252033,10.6256098 7.47073171,10.6170732 7.21463415,10.6056911 C7.47642276,10.9386179 7.74105691,11.2430894 8.00569106,11.5162602 C8.26747967,11.2430894 8.53211382,10.9386179 8.78821138,10.6056911 Z M8,5.44674797 C7.56747967,5.44674797 7.13780488,5.46666667 6.71382114,5.50365854 C6.47764228,5.84227642 6.25,6.20650407 6.02804878,6.59065041 C5.81463415,6.96341463 5.61544715,7.34471545 5.43902439,7.72601626 C5.61829268,8.10731707 5.81463415,8.48577236 6.03089431,8.85853659 C6.25284553,9.2398374 6.48333333,9.60121951 6.7195122,9.9398374 C7.14065041,9.97398374 7.5703252,9.99390244 8,9.99390244 C8.43252033,9.99390244 8.86219512,9.97398374 9.28617886,9.93699187 C9.52235772,9.59837398 9.75,9.23414634 9.97195122,8.85 C10.1853659,8.47723577 10.3817073,8.09593496 10.5609756,7.71463415 C10.3817073,7.33333333 10.1853659,6.95487805 9.96910569,6.58211382 C9.74715447,6.20081301 9.51666667,5.83943089 9.2804878,5.50081301 C8.85934959,5.46666667 8.4296748,5.44674797 8,5.44674797 Z M10.8910569,8.4800813 C10.7743902,8.70772358 10.6520325,8.93821138 10.5211382,9.16585366 C10.3902439,9.39634146 10.250813,9.62113821 10.1113821,9.8402439 C10.5182927,9.7804878 10.9109756,9.70365854 11.2837398,9.61260163 C11.1756098,9.24268293 11.0447154,8.86138211 10.8910569,8.4800813 Z M5.10609756,8.49146341 C4.95813008,8.8699187 4.82723577,9.24837398 4.72195122,9.61544715 C5.09471545,9.70650407 5.48455285,9.7804878 5.88861789,9.8402439 C5.74918699,9.62398374 5.61260163,9.40203252 5.47886179,9.17439024 C5.34512195,8.94674797 5.22276423,8.71910569 5.10609756,8.49146341 Z M4.09878049,5.9902439 C3.82276423,6.07845528 3.55528455,6.17235772 3.31056911,6.27764228 C2.30325203,6.70447154 1.65162602,7.27073171 1.65162602,7.71747967 C1.65162602,8.16422764 2.30325203,8.72764228 3.31056911,9.15731707 C3.55813008,9.26260163 3.82560976,9.35934959 4.10731707,9.44756098 C4.26666667,8.89268293 4.47723577,8.31504065 4.73902439,7.72317073 C4.47439024,7.12845528 4.26097561,6.54796748 4.09878049,5.9902439 Z M11.8898374,5.98739837 C11.7304878,6.54227642 11.5199187,7.1199187 11.2581301,7.71178862 C11.5227642,8.30650407 11.7361789,8.88699187 11.898374,9.44471545 C12.1743902,9.35650407 12.4418699,9.26260163 12.6865854,9.15731707 C13.6939024,8.7304878 14.3455285,8.16422764 14.348374,7.71747967 C14.348374,7.27073171 13.696748,6.70731707 12.6894309,6.27764228 C12.4390244,6.17235772 12.1715447,6.07560976 11.8898374,5.98739837 Z M7.99715447,6.41707317 C8.71534915,6.41707317 9.29756098,6.99928499 9.29756098,7.71747967 C9.29756098,8.43567436 8.71534915,9.01788618 7.99715447,9.01788618 C7.27895979,9.01788618 6.69674797,8.43567436 6.69674797,7.71747967 C6.69674797,6.99928499 7.27895979,6.41707317 7.99715447,6.41707317 Z M5.88577236,5.59471545 C5.47886179,5.65447154 5.08617886,5.73130081 4.71341463,5.8195122 C4.82154472,6.18943089 4.95243902,6.57073171 5.10609756,6.95203252 C5.22276423,6.72439024 5.34512195,6.49674797 5.47601626,6.26910569 C5.60691057,6.03861789 5.74634146,5.81382114 5.88577236,5.59471545 Z M10.1085366,5.59471545 C10.2479675,5.81097561 10.3873984,6.03292683 10.5182927,6.26056911 C10.6520325,6.48821138 10.7743902,6.71585366 10.8910569,6.94349593 C11.0390244,6.56504065 11.1699187,6.18658537 11.2752033,5.8195122 C10.902439,5.72845528 10.5126016,5.65447154 10.1085366,5.59471545 Z M5.15162602,2.14593496 C5.02073171,2.14878049 4.9097561,2.17154472 4.82439024,2.22276423 C4.4402439,2.44756098 4.27520325,3.29268293 4.40894309,4.3796748 C4.44308943,4.64430894 4.49146341,4.9203252 4.55691057,5.20487805 C5.11463415,5.06544715 5.72357724,4.9601626 6.36666667,4.89186992 C6.74512195,4.36544715 7.14349593,3.8902439 7.54186992,3.47195122 C6.61422764,2.61544715 5.74065041,2.14593496 5.15162602,2.14593496 L5.15162602,2.14593496 Z M10.8339187,2.134 L10.7149655,2.1408265 C10.1287715,2.19926649 9.31254743,2.66439024 8.44674797,3.46910569 C8.84796748,3.88739837 9.24634146,4.36544715 9.6304878,4.89186992 C10.2707317,4.9601626 10.8796748,5.06544715 11.4373984,5.20203252 C11.5,4.91463415 11.5512195,4.63292683 11.5825203,4.36544715 C11.7134146,3.27845528 11.5455285,2.43333333 11.1585366,2.21138211 C11.0703252,2.16300813 10.9650407,2.13739837 10.8341463,2.13739837 L10.8341463,2.13739837 L10.8339187,2.134 Z M7.99146341,3.91869919 C7.7296748,4.19186992 7.46504065,4.49634146 7.20894309,4.82926829 C7.46788618,4.81504065 7.73252033,4.80934959 8,4.80934959 C8.26463415,4.80934959 8.52642276,4.81788618 8.78252033,4.82926829 C8.52073171,4.49634146 8.25609756,4.19186992 7.99146341,3.91869919 Z" />
    </g>
</svg>