<?xml version="1.0" encoding="UTF-8"?>
<svg width="12px" height="10px" viewBox="0 0 12 10" version="1.1" xmlns="http://www.w3.org/2000/svg" xmlns:xlink="http://www.w3.org/1999/xlink">
    <title></title>
    <g id="User-Flows" stroke="none" stroke-width="1" fill="none" fill-rule="evenodd">
        <g id="ChecklistItem/Default" transform="translate(-22.000000, -15.000000)" fill="#2C90CE" fill-rule="nonzero">
            <g id="Checkbox" transform="translate(16.000000, 8.000000)">
                <path d="M9.125,16.5 C9.30208333,16.5 9.44791667,16.4375 9.5625,16.3125 L9.5625,16.3125 L9.59375,16.28125 L17.8125,8.03125 C17.9375,7.91666667 18,7.77083333 18,7.59375 C18,7.41666667 17.9401042,7.26822917 17.8203125,7.1484375 C17.7005208,7.02864583 17.5520833,6.96875 17.375,6.96875 C17.1979167,6.96875 17.0520833,7.03125 16.9375,7.15625 L16.9375,7.15625 L9.265625,14.84375 L7.1875,11.203125 C7.09375,11.0572917 6.96354167,10.9609375 6.796875,10.9140625 C6.63020833,10.8671875 6.47135417,10.8854167 6.3203125,10.96875 C6.16927083,11.0520833 6.07291667,11.1770833 6.03125,11.34375 C5.98958333,11.5104167 6.01041667,11.671875 6.09375,11.828125 L6.09375,11.828125 L8.578125,16.171875 C8.68229167,16.359375 8.83854167,16.4635417 9.046875,16.484375 C9.06770833,16.4947917 9.09375,16.5 9.125,16.5 Z" id=""></path>
            </g>
        </g>
    </g>
</svg>