<?xml version="1.0" encoding="UTF-8"?>
<svg width="14px" height="13px" viewBox="0 0 14 13" version="1.1" xmlns="http://www.w3.org/2000/svg" xmlns:xlink="http://www.w3.org/1999/xlink">
    <title></title>
    <g id="User-Flows" stroke="none" stroke-width="1" fill="none" fill-rule="evenodd">
        <g id="Import" transform="translate(-1101.000000, -62.000000)" fill="#DDDDDD" fill-rule="nonzero">
            <g id="Modal" transform="translate(0.000000, 0.000000)">
                <g id="ModalContent" transform="translate(154.000000, 50.000000)">
                    <path d="M959.517578,24.8476562 C959.732422,24.8476562 959.914714,24.7727865 960.064453,24.6230469 C960.214193,24.4733073 960.289062,24.2910156 960.289062,24.0761719 C960.289062,23.8613281 960.210938,23.6822917 960.054688,23.5390625 L955.09375,18.5585938 L960.054688,13.578125 C960.210938,13.4348958 960.289062,13.2558594 960.289062,13.0410156 C960.289062,12.8261719 960.214193,12.6438802 960.064453,12.4941406 C959.914714,12.344401 959.732422,12.2695312 959.517578,12.2695312 C959.302734,12.2695312 959.123698,12.3476562 958.980469,12.5039062 L954,17.4648438 L949.019531,12.5039062 C948.876302,12.3476562 948.697266,12.2695312 948.482422,12.2695312 C948.267578,12.2695312 948.085286,12.344401 947.935547,12.4941406 C947.785807,12.6438802 947.710938,12.8261719 947.710938,13.0410156 C947.710938,13.2558594 947.789062,13.4348958 947.945312,13.578125 L952.90625,18.5585938 L947.945312,23.5390625 C947.789062,23.6822917 947.710938,23.8613281 947.710938,24.0761719 C947.710938,24.2910156 947.785807,24.4733073 947.935547,24.6230469 C948.085286,24.7727865 948.267578,24.8476562 948.482422,24.8476562 C948.697266,24.8476562 948.876302,24.7695312 949.019531,24.6132812 L954,19.6328125 L958.980469,24.6132812 C959.123698,24.7695312 959.302734,24.8476562 959.517578,24.8476562 Z" id=""></path>
                </g>
            </g>
        </g>
    </g>
</svg>