<?xml version="1.0" encoding="UTF-8"?>
<svg width="14px" height="13px" viewBox="0 0 14 13" version="1.1" xmlns="http://www.w3.org/2000/svg" xmlns:xlink="http://www.w3.org/1999/xlink">
    <title></title>
    <g id="User-Flows" stroke="none" stroke-width="1" fill="none" fill-rule="evenodd">
        <g id="Screens/Settings" transform="translate(-575.000000, -126.000000)" fill="#DDDDDD" fill-rule="nonzero">
            <g id="ModalContent" transform="translate(40.000000, 114.000000)">
                <path d="M547.517578,24.8476562 C547.732422,24.8476562 547.914714,24.7727865 548.064453,24.6230469 C548.214193,24.4733073 548.289062,24.2910156 548.289062,24.0761719 C548.289062,23.8613281 548.210938,23.6822917 548.054688,23.5390625 L543.09375,18.5585938 L548.054688,13.578125 C548.210938,13.4348958 548.289062,13.2558594 548.289062,13.0410156 C548.289062,12.8261719 548.214193,12.6438802 548.064453,12.4941406 C547.914714,12.344401 547.732422,12.2695312 547.517578,12.2695312 C547.302734,12.2695312 547.123698,12.3476562 546.980469,12.5039062 L542,17.4648438 L537.019531,12.5039062 C536.876302,12.3476562 536.697266,12.2695312 536.482422,12.2695312 C536.267578,12.2695312 536.085286,12.344401 535.935547,12.4941406 C535.785807,12.6438802 535.710938,12.8261719 535.710938,13.0410156 C535.710938,13.2558594 535.789062,13.4348958 535.945312,13.578125 L540.90625,18.5585938 L535.945312,23.5390625 C535.789062,23.6822917 535.710938,23.8613281 535.710938,24.0761719 C535.710938,24.2910156 535.785807,24.4733073 535.935547,24.6230469 C536.085286,24.7727865 536.267578,24.8476562 536.482422,24.8476562 C536.697266,24.8476562 536.876302,24.7695312 537.019531,24.6132812 L542,19.6328125 L546.980469,24.6132812 C547.123698,24.7695312 547.302734,24.8476562 547.517578,24.8476562 Z" id=""></path>
            </g>
        </g>
    </g>
</svg>