<?xml version="1.0" encoding="UTF-8"?>
<svg width="14px" height="14px" viewBox="0 0 14 14" version="1.1" xmlns="http://www.w3.org/2000/svg" xmlns:xlink="http://www.w3.org/1999/xlink">
    <title></title>
    <g id="User-Flows" stroke="none" stroke-width="1" fill="none" fill-rule="evenodd">
        <g id="ColorListItem" transform="translate(-125.000000, -9.000000)" fill="#999999" fill-rule="nonzero">
            <path d="M137.015625,22.953125 C137.317708,22.953125 137.578125,22.8463542 137.796875,22.6328125 C138.015625,22.4192708 138.125,22.1614583 138.125,21.859375 L138.125,12.125 L138.4375,12.125 C138.59375,12.125 138.729167,12.0703125 138.84375,11.9609375 C138.958333,11.8515625 139.015625,11.7239583 139.015625,11.578125 C139.015625,11.421875 138.960938,11.2890625 138.851562,11.1796875 C138.742188,11.0703125 138.604167,11.015625 138.4375,11.015625 L135.5625,11.015625 L135.5625,10.109375 C135.5625,9.80729167 135.453125,9.54947917 135.234375,9.3359375 C135.015625,9.12239583 134.755208,9.015625 134.453125,9.015625 L129.546875,9.015625 C129.234375,9.015625 128.971354,9.12239583 128.757812,9.3359375 C128.544271,9.54947917 128.4375,9.80729167 128.4375,10.109375 L128.4375,11.015625 L125.546875,11.015625 C125.390625,11.015625 125.257812,11.0703125 125.148438,11.1796875 C125.039062,11.2890625 124.984375,11.4192708 124.984375,11.5703125 C124.984375,11.7213542 125.039062,11.8515625 125.148438,11.9609375 C125.257812,12.0703125 125.390625,12.125 125.546875,12.125 L126.03125,12.125 L126.03125,21.859375 C126.03125,22.1614583 126.140625,22.4192708 126.359375,22.6328125 C126.578125,22.8463542 126.838542,22.953125 127.140625,22.953125 L137.015625,22.953125 Z M134.453125,11.015625 L129.53125,11.015625 L129.53125,10.125 L134.453125,10.125 L134.453125,11.015625 Z M137.015625,21.859375 L127.140625,21.859375 L127.140625,12.125 L137.015625,12.125 L137.015625,21.859375 Z M131.992188,20.34375 C132.143229,20.34375 132.273438,20.2890625 132.382812,20.1796875 C132.492188,20.0703125 132.546875,19.9375 132.546875,19.78125 L132.546875,14.5625 C132.546875,14.40625 132.489583,14.2760417 132.375,14.171875 C132.270833,14.0572917 132.143229,14 131.992188,14 C131.841146,14 131.710938,14.0546875 131.601562,14.1640625 C131.492188,14.2734375 131.4375,14.40625 131.4375,14.5625 L131.4375,19.78125 C131.4375,19.9375 131.492188,20.0703125 131.601562,20.1796875 C131.710938,20.2890625 131.841146,20.34375 131.992188,20.34375 Z M128.953125,20.34375 C129.109375,20.34375 129.242188,20.2890625 129.351562,20.1796875 C129.460938,20.0703125 129.515625,19.9375 129.515625,19.78125 L129.515625,14.5625 C129.515625,14.40625 129.458333,14.2760417 129.34375,14.171875 C129.239583,14.0572917 129.109375,14 128.953125,14 C128.796875,14 128.664062,14.0546875 128.554688,14.1640625 C128.445312,14.2734375 128.390625,14.40625 128.390625,14.5625 L128.390625,19.78125 C128.390625,19.9375 128.445312,20.0703125 128.554688,20.1796875 C128.664062,20.2890625 128.796875,20.34375 128.953125,20.34375 Z M135,20.34375 C135.15625,20.34375 135.289062,20.2890625 135.398438,20.1796875 C135.507812,20.0703125 135.5625,19.9375 135.5625,19.78125 L135.5625,14.5625 C135.5625,14.40625 135.505208,14.2760417 135.390625,14.171875 C135.286458,14.0572917 135.15625,14 135,14 C134.84375,14 134.710938,14.0546875 134.601562,14.1640625 C134.492188,14.2734375 134.4375,14.40625 134.4375,14.5625 L134.4375,19.78125 C134.4375,19.9375 134.492188,20.0703125 134.601562,20.1796875 C134.710938,20.2890625 134.84375,20.34375 135,20.34375 Z" id=""></path>
        </g>
    </g>
</svg>